Coordinates
version=1
nRows=12
nColumns=42
inDegrees=yes

Units are S.I. units (second, meters, Newtons, ...)
If the header above contains a line with 'inDegrees', this indicates whether rotational values are in degrees (yes) or radians (no).

endheader
time	pelvis_tilt	pelvis_list	pelvis_rotation	pelvis_tx	pelvis_ty	pelvis_tz	hip_flexion_r	hip_adduction_r	hip_rotation_r	knee_angle_r	knee_adduction_r	knee_angle_r_beta	ankle_angle_r	subtalar_angle_r	mtp_angle_r	hip_flexion_l	hip_adduction_l	hip_rotation_l	knee_angle_l	knee_adduction_l	knee_angle_l_beta	ankle_angle_l	subtalar_angle_l	mtp_angle_l	lumbar_extension	lumbar_bending	lumbar_rotation	arm_flex_r	arm_add_r	arm_rot_r	elbow_flex_r	pro_sup_r	wrist_flex_r	wrist_dev_r	arm_flex_l	arm_add_l	arm_rot_l	elbow_flex_l	pro_sup_l	wrist_flex_l	wrist_dev_l
      0.50000000	      6.65108082	     -1.73735746	      5.04609172	     -1.07046194	      0.88370065	     -0.16086858	     -0.63244853	      2.70949556	    -19.88959361	     25.07678657	     -1.38534048	      0.43767249	     21.60024581	     30.58418357	     -9.54998592	     10.19410322	     -2.55019167	      4.34829491	     56.95781886	     -3.30700957	      0.99410147	      4.85488563	     -6.57481900	     -9.54998592	    -30.85991745	      5.87825996	     -2.49220795	      7.96096464	    -11.34332090	    -15.15046772	     41.97703628	     90.00000001	      0.00000000	      0.00000000	     17.09395016	     -8.64694350	     29.97715854	     54.14842181	     90.00000001	      0.00000000	      0.00000000
      0.51000000	      6.59498365	     -1.72360287	      5.07267507	     -1.06799940	      0.88364481	     -0.16044695	     -0.86901716	      2.72393072	    -19.87276379	     24.88334359	     -1.27380486	      0.43429627	     21.66083063	     30.50002975	     -9.52982771	     10.93138053	     -2.46589552	      4.34014857	     56.77755219	     -3.21307842	      0.99095523	      4.98525212	     -6.42960192	     -9.52982771	    -30.78136178	      5.85067004	     -2.51637886	      7.93796173	    -11.32886188	    -15.10610100	     42.01488026	     90.00000001	      0.00000000	      0.00000000	     17.23716844	     -8.58583026	     29.98446302	     54.25964672	     90.00000001	      0.00000000	      0.00000000
      0.52000000	      6.51530346	     -1.84246952	      5.22681455	     -1.06564964	      0.88345223	     -0.16008417	     -1.11138018	      2.88727954	    -19.81860965	     24.59936675	     -1.04426138	      0.42933994	     21.70685761	     30.45324422	     -9.47188627	     11.78254039	     -2.57874149	      4.63756588	     56.73239214	     -2.91636853	      0.99016704	      5.35415918	     -5.74391120	     -9.47188627	    -30.67546998	      6.00695394	     -2.60092511	      7.90725798	    -11.33422551	    -14.97403293	     42.13844216	     90.00000001	      0.00000000	      0.00000000	     17.37633054	     -8.63952382	     30.10955283	     54.45141591	     90.00000001	      0.00000000	      0.00000000
      0.53000000	      6.48816186	     -1.81061911	      5.21247317	     -1.06330706	      0.88342376	     -0.15965555	     -1.29752271	      2.87935960	    -19.80755274	     24.56160749	     -0.99238944	      0.42868092	     21.68849033	     30.25640959	     -9.45481206	     12.48406361	     -2.51807735	      4.55430455	     56.55271347	     -2.84235323	      0.98703105	      5.43496248	     -5.57099689	     -9.45481206	    -30.65812496	      5.94737370	     -2.59020774	      7.91615274	    -11.30868616	    -14.91781036	     42.22026447	     90.00000001	      0.00000000	      0.00000000	     17.54942323	     -8.57855997	     30.06343241	     54.55623333	     90.00000001	      0.00000000	      0.00000000
      0.54000000	      6.44186260	     -1.77377796	      5.30625354	     -1.06081545	      0.88334037	     -0.15943734	     -1.57876076	      2.87449059	    -19.85696086	     24.30092920	     -0.88875866	      0.42413123	     21.80375803	     30.22694000	     -9.44227385	     13.19724167	     -2.39908581	      4.62214701	     56.37930254	     -2.80704412	      0.98400446	      5.56988024	     -5.36438206	     -9.44227385	    -30.56661407	      5.93686398	     -2.66337225	      7.86739616	    -11.28888052	    -14.86752992	     42.25809523	     90.00000001	      0.00000000	      0.00000000	     17.66343539	     -8.56163003	     30.08782053	     54.59220628	     90.00000001	      0.00000000	      0.00000000
      0.55000000	      6.37987537	     -1.91556784	      5.60158027	     -1.05844196	      0.88312270	     -0.15937829	     -1.86661287	      3.10489126	    -19.90496042	     23.93745448	     -0.74291470	      0.41778740	     21.86818352	     30.25986000	     -9.37226492	     14.03756474	     -2.52146275	      5.02229493	     56.34962504	     -2.61254865	      0.98348649	      6.17909579	     -4.01104898	     -9.37226492	    -30.44326337	      6.18450154	     -2.86894887	      7.75790144	    -11.32050522	    -14.56278284	     42.52119312	     90.00000001	      0.00000000	      0.00000000	     17.78262208	     -8.61822466	     30.24980324	     54.67434320	     90.00000001	      0.00000000	      0.00000000
      0.56000000	      6.36813608	     -1.87646389	      5.57551252	     -1.05606154	      0.88307456	     -0.15898795	     -2.03617905	      3.09462564	    -19.85554553	     23.97221563	     -0.69974471	      0.41839409	     21.82770232	     30.04860002	     -9.35565972	     14.67877539	     -2.48850660	      4.92941788	     56.15950565	     -2.58037921	      0.98016828	      6.22055785	     -3.84240142	     -9.35565972	    -30.43433598	      6.11572580	     -2.85809511	      7.72921802	    -11.29588316	    -14.50580430	     42.60663773	     90.00000001	      0.00000000	      0.00000000	     17.90253069	     -8.61502310	     30.17642905	     54.74258326	     90.00000001	      0.00000000	      0.00000000
      0.57000000	      6.34941843	     -1.81428823	      5.77544206	     -1.05353169	      0.88302804	     -0.15904717	     -2.39131447	      3.08988145	    -19.87444332	     23.63169330	     -0.61236868	      0.41245086	     22.03716435	     30.13961828	     -9.33811048	     15.31815942	     -2.29504043	      5.03294786	     55.91165162	     -2.70655040	      0.97584241	      6.38354179	     -3.42660073	     -9.33811048	    -30.33636075	      6.13860720	     -3.07159793	      7.65882783	    -11.27097079	    -14.39787484	     42.70878691	     90.00000001	      0.00000000	      0.00000000	     17.96188216	     -8.63656528	     30.20989403	     54.61917716	     90.00000001	      0.00000000	      0.00000000
      0.58000000	      6.42320862	     -1.82483727	      5.81905021	     -1.05096678	      0.88305239	     -0.15877620	     -2.73394865	      3.15454030	    -19.91279032	     23.49317530	     -0.55317316	      0.41003326	     22.04906788	     30.15061021	     -9.24898996	     15.80504541	     -2.35125036	      4.70065709	     55.59497933	     -2.95261472	      0.97031544	      6.99334830	     -1.81497449	     -9.24898996	    -30.38093189	      6.15180799	     -3.06213262	      7.47677506	    -11.35941892	    -13.90492501	     43.05141832	     90.00000001	      0.00000000	      0.00000000	     18.08373089	     -8.63786744	     30.13750941	     54.60223696	     90.00000001	      0.00000000	      0.00000000
      0.59000000	      6.39992672	     -1.78762203	      5.84758773	     -1.04849506	      0.88296842	     -0.15858049	     -2.92475795	      3.16574612	    -19.88054581	     23.45175469	     -0.54744291	      0.40931033	     22.08103464	     30.02750256	     -9.23224208	     16.37752257	     -2.30144598	      4.60594487	     55.25168163	     -3.00994008	      0.96432376	      7.06392018	     -1.66982556	     -9.23224208	    -30.31152068	      6.10963453	     -3.10883011	      7.43790139	    -11.34321655	    -13.84248677	     43.12768081	     90.00000001	      0.00000000	      0.00000000	     18.13241566	     -8.66601336	     30.08674840	     54.58070991	     90.00000001	      0.00000000	      0.00000000
      0.60000000	      6.41815475	     -1.71445852	      5.89239864	     -1.04606203	      0.88298171	     -0.15844108	     -3.17475975	      3.13285317	    -19.82758346	     23.36911418	     -0.51635228	      0.40786799	     22.19001729	     29.98253638	     -9.20650678	     16.85516778	     -2.18848241	      4.47094415	     54.83464183	     -3.19402516	      0.95704504	      7.22391854	     -1.21306298	     -9.20650678	    -30.31003243	      6.04789337	     -3.18442657	      7.38883837	    -11.31486253	    -13.68158144	     43.30815652	     90.00000001	      0.00000000	      0.00000000	     18.22843095	     -8.69935788	     29.99315696	     54.43344196	     90.00000001	      0.00000000	      0.00000000
      0.61000000	      6.58677051	     -1.59791303	      5.77961967	     -1.04331806	      0.88321354	     -0.15817514	     -3.58920023	      3.01937517	    -19.74828807	     23.37057794	     -0.45111416	      0.40789353	     22.27199343	     30.02196892	     -9.13127166	     17.05099880	     -2.12789564	      3.73761477	     54.22075844	     -3.69484770	      0.94633076	      7.70788404	      0.22040378	     -9.13127166	    -30.45141162	      5.88935585	     -3.11636583	      7.21188896	    -11.42252423	    -13.16106082	     43.66280643	     90.00000001	      0.00000000	      0.00000000	     18.26965381	     -8.66480292	     29.76101060	     54.24676687	     90.00000001	      0.00000000	      0.00000000
